<?xml version="1.0" encoding="UTF-8" standalone="no"?>
<!-- Created with Inkscape (http://www.inkscape.org/) -->

<svg
   width="1023.9999"
   height="1023.9999"
   viewBox="0 0 270.93333 270.93333"
   version="1.1"
   id="svg5"
   xml:space="preserve"
   xmlns:xlink="http://www.w3.org/1999/xlink"
   xmlns="http://www.w3.org/2000/svg"
   xmlns:svg="http://www.w3.org/2000/svg"><defs
     id="defs2"><linearGradient
       id="linearGradient980"><stop
         style="stop-color:#ff9955;stop-opacity:1"
         offset="0"
         id="stop976" /><stop
         style="stop-color:#a02c2c;stop-opacity:1"
         offset="1"
         id="stop978" /></linearGradient><linearGradient
       id="linearGradient60252"><stop
         style="stop-color:#e5ff80;stop-opacity:1"
         offset="0"
         id="stop60248" /><stop
         style="stop-color:#668000;stop-opacity:1"
         offset="1"
         id="stop60250" /></linearGradient><clipPath
       clipPathUnits="userSpaceOnUse"
       id="clipPath56971-9-5-58"><path
         style="fill:#ffff00;stroke:none;stroke-width:0.141421;stroke-linecap:round;stroke-linejoin:round;stroke-dasharray:none;stop-color:#000000"
         d="m -2381.0746,221.2102 c -2.0812,-7.56195 -3.4474,-19.70432 -4.023,-35.75434 l -0.2355,-6.56849 4.0534,-2.09206 c 6.8943,-3.55823 16.5758,-6.70677 24.4462,-7.95015 12.521,-1.97813 27.5411,-1.40607 38.9385,1.48302 6.7786,1.71828 14.1341,4.49942 18.6283,7.04342 l 2.7498,1.55657 -0.2389,7.29644 c -0.4476,13.67335 -1.431,23.27769 -3.2564,31.80508 -0.7679,3.58704 -1.4431,5.12945 -1.4431,3.29653 0,-1.57533 -1.4084,-7.95314 -2.4253,-10.98233 -4.0918,-12.18914 -17.4679,-28.02564 -27.3807,-32.41699 -2.6245,-1.16263 -7.9181,-2.55341 -9.7187,-2.55341 -1.6743,0 -7.1891,1.48122 -9.7849,2.62811 -6.738,2.97701 -16.9736,13.326 -22.7444,22.99634 -3.4087,5.71198 -5.5465,11.74141 -6.7001,18.89688 l -0.4533,2.8121 z"
         id="path56973-8-2-6" /></clipPath><linearGradient
       xlink:href="#linearGradient60252"
       id="linearGradient20009"
       gradientUnits="userSpaceOnUse"
       gradientTransform="matrix(4.7054588,0,0,2.2153835,10715.065,-1121.7337)"
       x1="-2774.4854"
       y1="561.83765"
       x2="-2774.2996"
       y2="608.04663" /><linearGradient
       xlink:href="#linearGradient980"
       id="linearGradient6893"
       gradientUnits="userSpaceOnUse"
       gradientTransform="matrix(11.2519,0,0,5.2975223,31352.808,-2953.157)"
       x1="-2774.4854"
       y1="561.83765"
       x2="-2774.2996"
       y2="608.04663" /><linearGradient
       xlink:href="#linearGradient980"
       id="linearGradient7074"
       gradientUnits="userSpaceOnUse"
       gradientTransform="matrix(11.2519,0,0,5.2975223,31354.39,-2953.157)"
       x1="-2774.4854"
       y1="561.83765"
       x2="-2774.2996"
       y2="608.04663" /><clipPath
       clipPathUnits="userSpaceOnUse"
       id="clipPath7076"><path
         style="fill:#808000;stroke:none;stroke-width:0.0353552;stroke-linecap:round;stroke-linejoin:round;stroke-dasharray:none;stop-color:#000000"
         d="m -2529.8448,732.40446 c -3.4544,-1.00555 -5.2848,-1.70227 -7.9045,-3.00889 -8.9196,-4.44863 -15.9364,-9.34641 -21.8012,-15.21727 -2.0683,-2.07045 -2.9309,-3.05438 -4.4349,-5.05881 -2.854,-3.80376 -5.2931,-8.12972 -6.8038,-12.06722 -1.8151,-4.73067 -2.7258,-8.67167 -3.5344,-15.29451 -0.5199,-4.25759 -0.5356,-4.5611 -0.5827,-11.20193 l -0.044,-6.29086 h 0.383 c 0.2595,0 0.3829,0.0408 0.3829,0.12652 0,0.27591 0.5834,4.79886 0.844,6.54344 0.8715,5.83456 2.1089,11.21423 3.5526,15.44545 1.8992,5.56606 4.8438,10.75076 8.792,15.48061 1.2678,1.51871 6.5127,6.60463 9.0282,8.75456 3.3938,2.90047 8.3666,6.16521 13.1898,8.65918 2.7403,1.417 7.0659,3.41992 8.8867,4.1149 l 0.9633,0.35706 v 7.00448 c 0,2.28945 0,1.85217 -7e-4,1.89799 0,0.0391 -0.4757,-0.11741 -0.913,-0.2447 z m 1.834,0 c 3.4544,-1.00555 5.2848,-1.70227 7.9045,-3.00889 8.9196,-4.44863 15.9364,-9.34641 21.8012,-15.21727 2.0683,-2.07045 2.9309,-3.05438 4.4349,-5.05881 2.854,-3.80376 5.2931,-8.12972 6.8038,-12.06722 1.8151,-4.73067 2.7258,-8.67167 3.5344,-15.29451 0.5199,-4.25759 0.5356,-4.5611 0.5827,-11.20193 l 0.044,-6.29086 h -0.383 c -0.2595,0 -0.3829,0.0408 -0.3829,0.12652 0,0.27591 -0.5834,4.79886 -0.844,6.54344 -0.8715,5.83456 -2.1089,11.21423 -3.5526,15.44545 -1.8992,5.56606 -4.8438,10.75076 -8.792,15.48061 -1.2678,1.51871 -6.5127,6.60463 -9.0282,8.75456 -3.3938,2.90047 -8.3666,6.16521 -13.1898,8.65918 -2.7403,1.417 -7.0659,3.41992 -8.8867,4.1149 l -0.9633,0.35706 v 7.00448 c 0,2.28945 0,1.85217 7e-4,1.89799 0,0.0391 0.4757,-0.11741 0.913,-0.2447 z"
         id="path7078"
         class="UnoptimicedTransforms"
         transform="matrix(2.3912439,0,0,2.3912439,6182.7487,-1485.8678)" /></clipPath><clipPath
       clipPathUnits="userSpaceOnUse"
       id="clipPath7218"><path
         style="fill:#ffe680;stroke:none;stroke-width:0.169087;stroke-linecap:round;stroke-linejoin:round;stroke-dasharray:none;stop-color:#000000"
         d="m 127.87769,230.05252 c -19.01517,-8.96721 -30.583768,-15.83107 -41.469668,-24.6055 -4.548386,-3.66589 -15.793686,-14.20045 -15.793686,-14.79524 0,-0.18628 2.868536,-2.6291 6.374816,-5.42822 11.000438,-8.78208 17.591185,-16.20403 21.790927,-24.54079 1.856801,-3.68517 6.281801,-15.04406 6.281801,-16.12456 0,-1.32982 -0.89146,-1.50826 -3.63852,-0.72802 -5.113913,1.45256 -12.52653,2.22628 -21.414307,2.23519 -11.901459,0.012 -18.943913,-0.98411 -28.801814,-4.07408 l -5.31454,-1.66593 6.090975,-1.00071 c 28.077269,-4.61271 48.227566,-15.35865 55.080156,-29.3734 1.10332,-2.2569 2.45413,-5.66581 3.00149,-7.57543 0.92373,-3.225409 0.94191,-3.52429 0.25682,-4.209548 -0.68534,-0.68526 -1.07176,-0.60434 -5.44798,1.138688 -5.375272,2.141 -9.837094,3.36379 -14.78458,4.05189 -6.519246,0.90683 -10.916984,0.56639 -18.251646,-1.41296 l -3.473522,-0.93732 6.381274,-2.552248 c 20.532415,-8.211844 30.667464,-14.156595 39.972274,-23.446481 2.97375,-2.968538 6.37314,-6.875616 7.55561,-8.682368 4.39272,-6.712845 8.76774,-17.065064 11.70586,-27.695721 0.69729,-2.522069 1.3709,-4.58411 1.49763,-4.582343 0.12674,0 0.80275,2.065343 1.50242,4.585642 2.97256,10.702777 7.35069,21.042659 11.72571,27.692422 3.386,5.146363 11.99376,13.45969 18.09454,17.474827 8.3617,5.503592 14.84675,8.736912 28.97446,14.446006 l 6.82987,2.759804 -3.47471,0.93759 c -7.33538,1.97954 -11.7324,2.31998 -18.25237,1.41315 -4.947,-0.6881 -9.40859,-1.91089 -14.78458,-4.05189 -4.3755,-1.743028 -4.76264,-1.823948 -5.44797,-1.138688 -0.68509,0.685258 -0.66692,0.984139 0.25754,4.209548 0.54663,1.90962 1.92662,5.37693 3.06533,7.70521 4.8021,9.81632 16.17318,18.02407 33.02977,23.84089 6.88057,2.37408 13.61168,4.02695 22.03771,5.41127 l 6.14334,1.0092 -4.47186,1.42625 c -9.86914,3.14772 -17.90683,4.30871 -29.74875,4.29673 -8.88778,-0.01 -16.30039,-0.78263 -21.41431,-2.23519 -2.74658,-0.78024 -3.63851,-0.6018 -3.63851,0.72802 0,1.0805 4.42547,12.43939 6.28179,16.12456 4.16746,8.27222 10.89355,15.84766 21.79093,24.54325 3.50628,2.79778 6.37554,5.23938 6.37554,5.42576 0,0.59523 -11.24722,11.13062 -15.80063,14.80067 -8.60274,6.93339 -20.05608,14.11772 -31.91186,20.01653 -5.96185,2.96641 -17.06488,8.15213 -17.30902,8.08444 -0.0383,-0.012 -3.39366,-1.58633 -7.45375,-3.5009 z"
         id="path7220" /></clipPath></defs><g
     id="layer1"><rect
       style="fill:url(#linearGradient7074);fill-opacity:1;stroke:none;stroke-width:5;stroke-linecap:round;stroke-linejoin:round;stroke-dasharray:none;stop-color:#000000"
       id="rect7072"
       width="269.36569"
       height="248.23378"
       x="0.44671425"
       y="22.206551"
       clip-path="url(#clipPath7218)" /><rect
       style="fill:url(#linearGradient6893);fill-opacity:1;stroke:none;stroke-width:5;stroke-linecap:round;stroke-linejoin:round;stroke-dasharray:none;stop-color:#000000"
       id="rect6891"
       width="269.36569"
       height="248.23378"
       x="-1.1406032"
       y="22.206551"
       clip-path="url(#clipPath7076)" /><rect
       style="fill:url(#linearGradient20009);fill-opacity:1;stroke:none;stroke-width:2.09096;stroke-linecap:round;stroke-linejoin:round;stroke-dasharray:none;stop-color:#000000"
       id="rect53723-1-3-8-9"
       width="112.64668"
       height="103.80948"
       x="-2396.9199"
       y="122.54089"
       clip-path="url(#clipPath56971-9-5-58)"
       transform="matrix(2.3912439,0,0,2.3912439,5733.017,-395.90775)" /><path
       style="fill:none;stroke:none;stroke-width:5;stroke-linecap:round;stroke-linejoin:round;stroke-dasharray:none;stop-color:#000000"
       d="m 115.32359,54.4064 c -0.3401,3.033803 -0.68014,6.067099 -2.53671,8.367902 -1.85658,2.300803 -5.22928,3.869486 -8.01419,4.771745 -2.78491,0.902258 -4.981025,1.137571 -7.17826,1.373003"
       id="path24469-81-8-8-9-2-6-1" /><path
       style="fill:none;stroke:#000000;stroke-width:3;stroke-linecap:round;stroke-linejoin:round;stroke-dasharray:none;stop-color:#000000"
       d="m 135.4677,265.97962 c -0.0338,0 -0.0679,0 -0.13198,-0.011 -0.0641,-0.011 -0.15813,-0.033 -0.28457,-0.0668 -0.12643,-0.0337 -0.28525,-0.0792 -0.42582,-0.11987 -0.14056,-0.0407 -0.26285,-0.0765 -0.58394,-0.17207 -0.32108,-0.0956 -0.84094,-0.251 -1.5198,-0.45548 -0.67887,-0.20448 -1.5167,-0.45803 -2.30632,-0.70057 -0.78962,-0.24253 -1.53099,-0.47404 -2.31234,-0.7276 -0.78136,-0.25356 -1.60266,-0.52916 -2.80157,-0.966 -1.19891,-0.43683 -2.77534,-1.03489 -4.18647,-1.61228 -1.41112,-0.5774 -2.65685,-1.13411 -4.01561,-1.77352 -1.35876,-0.63941 -2.83048,-1.36149 -4.15616,-2.0257 -1.32568,-0.66422 -2.50526,-1.27054 -4.10407,-2.1256 -1.59881,-0.85506 -3.61675,-1.9588 -5.41893,-2.96867 -1.80219,-1.00987 -3.388514,-1.9258 -5.709615,-3.34652 -2.321102,-1.42072 -5.376821,-3.34613 -7.996088,-5.06502 -2.619268,-1.71888 -4.801926,-3.23115 -7.545931,-5.28135 -2.744005,-2.05019 -6.049173,-4.6382 -8.493038,-6.62213 -2.443865,-1.98392 -4.026291,-3.36367 -5.776375,-4.97732 -1.750085,-1.61366 -3.667704,-3.46112 -5.526921,-5.32422 -1.859218,-1.86311 -3.659914,-3.74175 -5.363228,-5.67111 -1.703314,-1.92936 -3.309124,-3.90935 -4.798064,-5.86989 -1.48894,-1.96055 -2.860898,-3.90156 -4.197823,-5.89719 -1.336925,-1.99563 -2.638725,-4.04576 -3.975654,-6.30644 -1.336929,-2.26068 -2.708885,-4.73176 -4.119874,-7.5732 -1.410989,-2.84144 -2.860899,-6.05307 -4.045817,-8.93738 -1.184919,-2.88431 -2.10475,-5.44113 -2.938876,-8.08378 -0.834126,-2.64266 -1.582466,-5.37098 -2.17493,-7.81096 -0.592464,-2.43997 -1.028997,-4.59145 -1.454759,-6.95069 -0.425763,-2.35925 -0.840719,-4.9261 -1.213572,-7.40021 -0.372853,-2.4741 -0.703576,-4.8553 -1.039826,-7.60039 -0.336249,-2.74508 -0.677996,-5.85387 -0.881958,-8.59896 -0.203963,-2.74508 -0.270108,-5.12629 -0.314207,-7.52962 -0.0441,-2.40332 -0.06614,-4.82862 -0.09922,-8.99035 -0.03307,-4.16174 -0.07717,-10.05962 -0.09922,-20.356808 -0.02205,-10.29719 -0.02205,-24.992974 0.28508,-36.286973 0.30713,-11.293998 0.921372,-19.185421 1.533218,-23.644584 0.611846,-4.459162 1.221252,-5.485369 2.880488,-6.684528 1.659236,-1.19916 4.368008,-2.571024 6.868362,-3.841634 2.500354,-1.270609 4.792144,-2.439889 7.271107,-3.609206 2.478962,-1.169317 5.144923,-2.338599 8.372249,-3.640438 3.227327,-1.301839 7.015797,-2.736157 11.357876,-4.178312 4.342079,-1.442154 9.237468,-2.892062 13.977103,-4.162714 4.739635,-1.270653 9.323216,-2.3619813 14.039473,-3.266244 4.716257,-0.9042627 9.564876,-1.6214214 13.797796,-2.1515045 4.23293,-0.5300832 7.8499,-0.8730715 11.34226,-1.1381114 3.49236,-0.2650399 6.85989,-0.452125 9.87208,-0.5584965 3.01219,-0.1063714 5.66968,-0.132044 8.32654,-0.1577104 m 0.0889,261.2390938 c 0.0338,0 0.0679,0 0.13198,-0.011 0.0641,-0.011 0.15813,-0.033 0.28457,-0.0668 0.12643,-0.0337 0.28525,-0.0792 0.42582,-0.11987 0.14056,-0.0407 0.26285,-0.0765 0.58394,-0.17207 0.32108,-0.0956 0.84094,-0.251 1.5198,-0.45548 0.67887,-0.20448 1.5167,-0.45803 2.30632,-0.70057 0.78962,-0.24253 1.53099,-0.47404 2.31234,-0.7276 0.78136,-0.25356 1.60266,-0.52916 2.80157,-0.966 1.19891,-0.43683 2.77534,-1.03489 4.18647,-1.61228 1.41112,-0.5774 2.65685,-1.13411 4.01561,-1.77352 1.35876,-0.63941 2.83048,-1.36149 4.15616,-2.0257 1.32568,-0.66422 2.50526,-1.27054 4.10407,-2.1256 1.59881,-0.85506 3.61675,-1.9588 5.41893,-2.96867 1.80219,-1.00987 3.38851,-1.9258 5.70962,-3.34652 2.3211,-1.42072 5.37682,-3.34613 7.99608,-5.06502 2.61927,-1.71888 4.80193,-3.23115 7.54593,-5.28135 2.74401,-2.05019 6.04918,-4.6382 8.49304,-6.62213 2.44387,-1.98392 4.02629,-3.36367 5.77638,-4.97732 1.75008,-1.61366 3.6677,-3.46112 5.52692,-5.32422 1.85922,-1.86311 3.65991,-3.74175 5.36323,-5.67111 1.70331,-1.92936 3.30912,-3.90935 4.79806,-5.86989 1.48894,-1.96055 2.8609,-3.90156 4.19782,-5.89719 1.33693,-1.99563 2.63873,-4.04576 3.97566,-6.30644 1.33693,-2.26068 2.70888,-4.73176 4.11987,-7.5732 1.41099,-2.84144 2.8609,-6.05307 4.04582,-8.93738 1.18492,-2.88431 2.10475,-5.44113 2.93887,-8.08378 0.83413,-2.64266 1.58247,-5.37098 2.17493,-7.81096 0.59247,-2.43997 1.029,-4.59145 1.45476,-6.95069 0.42577,-2.35925 0.84072,-4.9261 1.21358,-7.40021 0.37285,-2.4741 0.70357,-4.8553 1.03982,-7.60039 0.33625,-2.74508 0.678,-5.85387 0.88196,-8.59896 0.20396,-2.74508 0.27011,-5.12629 0.31421,-7.52962 0.0441,-2.40332 0.0661,-4.82862 0.0992,-8.99035 0.0331,-4.16174 0.0772,-10.05962 0.0992,-20.356808 0.0221,-10.29719 0.0221,-24.992974 -0.28508,-36.286973 -0.30713,-11.293998 -0.92137,-19.185421 -1.53322,-23.644584 -0.61184,-4.459162 -1.22125,-5.485369 -2.88048,-6.684528 -1.65924,-1.19916 -4.36801,-2.571024 -6.86837,-3.841634 -2.50035,-1.270609 -4.79214,-2.439889 -7.2711,-3.609206 -2.47896,-1.169317 -5.14493,-2.338599 -8.37225,-3.640438 -3.22733,-1.301839 -7.0158,-2.736157 -11.35788,-4.178312 -4.34208,-1.442154 -9.23747,-2.892062 -13.9771,-4.162714 -4.73964,-1.270653 -9.32322,-2.3619813 -14.03947,-3.266244 -4.71626,-0.9042627 -9.56488,-1.6214214 -13.7978,-2.1515045 -4.23293,-0.5300832 -7.8499,-0.8730715 -11.34226,-1.1381114 -3.49236,-0.2650399 -6.85989,-0.452125 -9.87208,-0.5584965 -3.01219,-0.1063714 -5.66968,-0.132044 -8.32654,-0.1577104"
       id="path16953-4"
       class="UnoptimicedTransforms"
       transform="translate(-0.00101,0.10665)" /></g></svg>
