    <svg
      xmlns="http://www.w3.org/2000/svg"
      xmlnsXlink="http://www.w3.org/1999/xlink"
      width="1024"
      height="1024"
      version="1.1"
      viewBox="0 0 270.933 270.933"
      xmlSpace="preserve"
    >
      <defs>
        <linearGradient id="linearGradient980">
          <stop offset="0" stopColor="#f95" stopOpacity="1"></stop>
          <stop offset="1" stopColor="#a02c2c" stopOpacity="1"></stop>
        </linearGradient>
        <linearGradient id="linearGradient60252">
          <stop offset="0" stopColor="#e5ff80" stopOpacity="1"></stop>
          <stop offset="1" stopColor="#668000" stopOpacity="1"></stop>
        </linearGradient>
        <clipPath id="clipPath56971-9-5-58" clipPathUnits="userSpaceOnUse">
          <path
            fill="#ff0"
            stroke="none"
            strokeDasharray="none"
            strokeLinecap="round"
            strokeLinejoin="round"
            strokeWidth="0.141"
            d="M-2381.075 221.21c-2.08-7.562-3.447-19.704-4.023-35.754l-.235-6.569 4.053-2.092c6.895-3.558 16.576-6.706 24.447-7.95 12.52-1.978 27.54-1.406 38.938 1.483 6.779 1.718 14.134 4.5 18.628 7.044l2.75 1.556-.239 7.297c-.447 13.673-1.43 23.277-3.256 31.805-.768 3.587-1.443 5.13-1.443 3.296 0-1.575-1.409-7.953-2.426-10.982-4.091-12.19-17.468-28.026-27.38-32.417-2.625-1.163-7.918-2.554-9.719-2.554-1.674 0-7.19 1.482-9.785 2.629-6.738 2.977-16.974 13.326-22.744 22.996-3.409 5.712-5.547 11.741-6.7 18.897l-.454 2.812z"
            stopColor="#000"
          ></path>
        </clipPath>
        <linearGradient
          id="linearGradient20009"
          x1="-2774.485"
          x2="-2774.3"
          y1="561.838"
          y2="608.047"
          gradientTransform="matrix(4.70546 0 0 2.21538 10715.065 -1121.734)"
          gradientUnits="userSpaceOnUse"
          xlinkHref="#linearGradient60252"
        ></linearGradient>
        <linearGradient
          id="linearGradient6893"
          x1="-2774.485"
          x2="-2774.3"
          y1="561.838"
          y2="608.047"
          gradientTransform="matrix(11.2519 0 0 5.29752 31352.808 -2953.157)"
          gradientUnits="userSpaceOnUse"
          xlinkHref="#linearGradient980"
        ></linearGradient>
        <linearGradient
          id="linearGradient7074"
          x1="-2774.485"
          x2="-2774.3"
          y1="561.838"
          y2="608.047"
          gradientTransform="matrix(11.2519 0 0 5.29752 31354.39 -2953.157)"
          gradientUnits="userSpaceOnUse"
          xlinkHref="#linearGradient980"
        ></linearGradient>
        <clipPath id="clipPath7076" clipPathUnits="userSpaceOnUse">
          <path
            fill="olive"
            stroke="none"
            strokeDasharray="none"
            strokeLinecap="round"
            strokeLinejoin="round"
            strokeWidth="0.035"
            d="M-2529.845 732.404c-3.454-1.005-5.285-1.702-7.904-3.008-8.92-4.45-15.937-9.347-21.802-15.218-2.068-2.07-2.93-3.054-4.434-5.059-2.854-3.803-5.293-8.13-6.804-12.067-1.815-4.73-2.726-8.671-3.535-15.294-.52-4.258-.535-4.561-.582-11.202l-.044-6.291h.383c.26 0 .383.04.383.126 0 .276.583 4.8.844 6.544.871 5.834 2.109 11.214 3.552 15.445 1.9 5.566 4.844 10.751 8.792 15.481 1.268 1.519 6.513 6.605 9.028 8.755 3.394 2.9 8.367 6.165 13.19 8.659 2.74 1.417 7.066 3.42 8.887 4.115l.963.357v8.902c0 .04-.476-.117-.914-.245zm1.834 0c3.455-1.005 5.285-1.702 7.905-3.008 8.92-4.45 15.936-9.347 21.8-15.218 2.07-2.07 2.932-3.054 4.436-5.059 2.854-3.803 5.293-8.13 6.804-12.067 1.815-4.73 2.725-8.671 3.534-15.294.52-4.258.536-4.561.583-11.202l.044-6.291h-.383c-.26 0-.383.04-.383.126 0 .276-.584 4.8-.844 6.544-.872 5.834-2.11 11.214-3.553 15.445-1.899 5.566-4.844 10.751-8.792 15.481-1.268 1.519-6.512 6.605-9.028 8.755-3.394 2.9-8.367 6.165-13.19 8.659-2.74 1.417-7.066 3.42-8.887 4.115l-.963.357v8.902c0 .04.477-.117.914-.245z"
            className="UnoptimicedTransforms"
            stopColor="#000"
            transform="matrix(2.39124 0 0 2.39124 6182.749 -1485.868)"
          ></path>
        </clipPath>
        <clipPath id="clipPath7218" clipPathUnits="userSpaceOnUse">
          <path
            fill="#ffe680"
            stroke="none"
            strokeDasharray="none"
            strokeLinecap="round"
            strokeLinejoin="round"
            strokeWidth="0.169"
            d="M127.878 230.053c-19.015-8.968-30.584-15.832-41.47-24.606-4.548-3.666-15.794-14.2-15.794-14.795 0-.187 2.869-2.63 6.375-5.428 11-8.783 17.591-16.204 21.791-24.541 1.857-3.685 6.282-15.044 6.282-16.125 0-1.33-.892-1.508-3.639-.728-5.114 1.453-12.526 2.226-21.414 2.235-11.901.012-18.944-.984-28.802-4.074l-5.314-1.666 6.09-1c28.078-4.613 48.228-15.359 55.08-29.374 1.104-2.257 2.455-5.666 3.002-7.575.924-3.226.942-3.524.257-4.21-.685-.685-1.072-.604-5.448 1.139-5.375 2.141-9.837 3.364-14.784 4.052-6.52.907-10.917.566-18.252-1.413l-3.474-.937 6.382-2.553c20.532-8.212 30.667-14.156 39.972-23.446 2.974-2.969 6.373-6.876 7.556-8.683 4.392-6.712 8.767-17.065 11.705-27.695.698-2.522 1.371-4.584 1.498-4.583.127 0 .803 2.066 1.502 4.586 2.973 10.703 7.351 21.043 11.726 27.692 3.386 5.147 11.994 13.46 18.095 17.475 8.361 5.504 14.846 8.737 28.974 14.446l6.83 2.76-3.475.938c-7.335 1.98-11.732 2.32-18.252 1.413-4.947-.688-9.409-1.911-14.785-4.052-4.375-1.743-4.762-1.824-5.448-1.139-.685.686-.666.984.258 4.21.547 1.91 1.927 5.377 3.065 7.705 4.802 9.816 16.173 18.024 33.03 23.84 6.88 2.375 13.612 4.028 22.038 5.412l6.143 1.01-4.472 1.426c-9.869 3.147-17.907 4.308-29.748 4.296-8.888-.01-16.3-.782-21.415-2.235-2.746-.78-3.638-.602-3.638.728 0 1.08 4.425 12.44 6.281 16.125 4.168 8.272 10.894 15.847 21.791 24.543 3.507 2.798 6.376 5.24 6.376 5.426 0 .595-11.247 11.13-15.8 14.8-8.603 6.934-20.057 14.118-31.913 20.017-5.961 2.966-17.064 8.152-17.309 8.084-.038-.012-3.393-1.586-7.453-3.5z"
            stopColor="#000"
          ></path>
        </clipPath>
      </defs>
      <g>
        <path
          fill="url(#linearGradient7074)"
          fillOpacity="1"
          stroke="none"
          strokeDasharray="none"
          strokeLinecap="round"
          strokeLinejoin="round"
          strokeWidth="5"
          d="M0.447 22.207H269.813V270.44100000000003H0.447z"
          clipPath="url(#clipPath7218)"
          stopColor="#000"
        ></path>
        <path
          fill="url(#linearGradient6893)"
          fillOpacity="1"
          stroke="none"
          strokeDasharray="none"
          strokeLinecap="round"
          strokeLinejoin="round"
          strokeWidth="5"
          d="M-1.141 22.207H268.22499999999997V270.44100000000003H-1.141z"
          clipPath="url(#clipPath7076)"
          stopColor="#000"
        ></path>
        <path
          fill="url(#linearGradient20009)"
          fillOpacity="1"
          stroke="none"
          strokeDasharray="none"
          strokeLinecap="round"
          strokeLinejoin="round"
          strokeWidth="2.091"
          d="M-2396.92 122.541H-2284.273V226.35H-2396.92z"
          clipPath="url(#clipPath56971-9-5-58)"
          stopColor="#000"
          transform="matrix(2.39124 0 0 2.39124 5733.017 -395.908)"
        ></path>
        <path
          fill="none"
          stroke="none"
          strokeDasharray="none"
          strokeLinecap="round"
          strokeLinejoin="round"
          strokeWidth="5"
          d="M115.324 54.406c-.34 3.034-.68 6.067-2.537 8.368-1.857 2.301-5.23 3.87-8.014 4.772-2.785.902-4.981 1.138-7.179 1.373"
          stopColor="#000"
        ></path>
        <path
          fill="none"
          stroke="#000"
          strokeDasharray="none"
          strokeLinecap="round"
          strokeLinejoin="round"
          strokeWidth="3"
          d="M135.467 266.086c-.034 0-.068 0-.132-.01a3.482 3.482 0 01-.285-.068 72.814 72.814 0 01-1.01-.292 512.958 512.958 0 01-3.826-1.156c-.79-.242-1.53-.474-2.312-.727a77.743 77.743 0 01-2.802-.966 121.997 121.997 0 01-4.186-1.612 82.495 82.495 0 01-4.016-1.774 193.71 193.71 0 01-8.26-4.151 334.057 334.057 0 01-5.419-2.969 157.733 157.733 0 01-5.71-3.346 323.103 323.103 0 01-7.996-5.065 141.406 141.406 0 01-7.546-5.282 292.141 292.141 0 01-8.493-6.622c-2.443-1.984-4.026-3.364-5.776-4.977a188.794 188.794 0 01-5.527-5.324c-1.86-1.864-3.66-3.742-5.363-5.672-1.703-1.929-3.31-3.909-4.798-5.87a121.158 121.158 0 01-4.198-5.897A131.027 131.027 0 0143.836 198a116.383 116.383 0 01-4.12-7.573 143.498 143.498 0 01-4.045-8.938 99.753 99.753 0 01-2.94-8.083 122.771 122.771 0 01-2.174-7.811 114.651 114.651 0 01-1.455-6.951c-.426-2.36-.84-4.926-1.213-7.4a268.552 268.552 0 01-1.04-7.6c-.337-2.746-.678-5.855-.882-8.6-.204-2.745-.27-5.126-.314-7.53a866.605 866.605 0 01-.1-8.99c-.033-4.161-.077-10.06-.099-20.356-.022-10.298-.022-24.993.285-36.287s.922-19.186 1.533-23.645c.612-4.46 1.222-5.485 2.88-6.685 1.66-1.199 4.369-2.57 6.87-3.841 2.5-1.27 4.791-2.44 7.27-3.61a156.52 156.52 0 018.373-3.64 191.981 191.981 0 0111.357-4.178C68.365 14.84 73.26 13.39 78 12.119c4.74-1.27 9.323-2.362 14.04-3.266 4.715-.904 9.564-1.621 13.797-2.152 4.233-.53 7.85-.873 11.342-1.138 3.492-.265 6.86-.452 9.872-.558 3.012-.107 5.67-.132 8.327-.158m.089 261.24c.033 0 .068 0 .132-.012.064-.01.158-.033.284-.067.127-.033.285-.079.426-.12a512.958 512.958 0 004.41-1.328c.79-.242 1.531-.474 2.312-.727.782-.254 1.603-.53 2.802-.966a121.997 121.997 0 004.186-1.612 82.495 82.495 0 004.016-1.774 193.71 193.71 0 008.26-4.151 334.057 334.057 0 005.42-2.969 157.741 157.741 0 005.709-3.346 323.094 323.094 0 007.996-5.065 141.403 141.403 0 007.546-5.282c2.744-2.05 6.049-4.638 8.493-6.622s4.026-3.364 5.776-4.977a188.804 188.804 0 005.527-5.325c1.86-1.863 3.66-3.741 5.363-5.67 1.704-1.93 3.31-3.91 4.798-5.87 1.49-1.961 2.861-3.902 4.198-5.898a131.024 131.024 0 003.976-6.306 116.384 116.384 0 004.12-7.573 143.499 143.499 0 004.046-8.938 99.75 99.75 0 002.939-8.084 122.766 122.766 0 002.174-7.81c.593-2.44 1.03-4.592 1.455-6.951.426-2.36.84-4.926 1.214-7.4.373-2.474.703-4.856 1.04-7.6.336-2.746.678-5.855.882-8.6.204-2.745.27-5.126.314-7.53.044-2.403.066-4.828.099-8.99.033-4.161.077-10.06.1-20.356.021-10.298.021-24.993-.286-36.287s-.921-19.186-1.533-23.645c-.612-4.46-1.221-5.485-2.88-6.685-1.66-1.199-4.369-2.57-6.869-3.841-2.5-1.27-4.792-2.44-7.271-3.61a156.521 156.521 0 00-8.372-3.64 191.982 191.982 0 00-11.358-4.178c-4.342-1.442-9.238-2.892-13.977-4.163-4.74-1.27-9.324-2.362-14.04-3.266-4.716-.904-9.565-1.622-13.798-2.152-4.232-.53-7.85-.873-11.342-1.138-3.492-.265-6.86-.452-9.872-.558-3.012-.107-5.67-.132-8.326-.158"
          className="UnoptimicedTransforms"
          stopColor="#000"
        ></path>
      </g>
    </svg>