<?xml version="1.0" standalone="no"?>
<!DOCTYPE svg PUBLIC "-//W3C//DTD SVG 20010904//EN"
 "http://www.w3.org/TR/2001/REC-SVG-20010904/DTD/svg10.dtd">
<svg version="1.0" xmlns="http://www.w3.org/2000/svg"
 width="700.000000pt" height="700.000000pt" viewBox="0 0 700.000000 700.000000"
 preserveAspectRatio="xMidYMid meet">
<metadata>
Created by potrace 1.14, written by Peter Selinger 2001-2017
</metadata>
<g transform="translate(0.000000,700.000000) scale(0.100000,-0.100000)"
fill="#000000" stroke="none">
<path d="M3417 6914 c-1 -1 -78 -4 -172 -8 -187 -7 -209 -9 -430 -32 -50 -5
-181 -21 -232 -29 -16 -2 -44 -6 -63 -9 -220 -32 -635 -137 -900 -228 -304
-104 -765 -315 -868 -396 -58 -47 -82 -120 -98 -302 -3 -41 -8 -91 -10 -110
-14 -141 -19 -497 -19 -1285 0 -910 3 -1017 30 -1227 25 -193 63 -437 70 -448
2 -3 6 -23 9 -45 18 -111 106 -398 162 -523 204 -455 376 -715 679 -1018 200
-200 208 -207 401 -359 313 -247 782 -530 1106 -669 116 -49 380 -136 415
-136 34 0 213 55 343 105 312 120 862 441 1150 672 8 7 43 34 78 62 158 125
270 228 433 398 122 127 313 384 399 538 244 434 370 811 425 1275 3 25 7 54
9 65 2 11 7 52 11 90 4 39 9 79 11 90 15 74 19 340 19 1145 0 805 -4 1093 -19
1260 -3 25 -7 77 -10 115 -4 39 -8 81 -11 95 -2 14 -6 43 -10 65 -10 69 -45
127 -100 163 -148 97 -564 285 -845 380 -303 104 -741 211 -965 237 -22 3 -71
9 -110 15 -110 14 -144 18 -230 25 -44 4 -93 8 -110 11 -40 5 -543 22 -548 18z
m343 -568 c127 -33 286 -89 377 -132 420 -205 968 -756 1334 -1344 220 -353
339 -648 418 -1042 12 -57 24 -114 27 -128 2 -14 7 -52 11 -85 3 -33 7 -67 8
-75 2 -8 4 -19 4 -23 1 -5 5 -6 10 -2 22 13 104 349 126 515 3 25 8 52 10 60
2 8 7 35 10 60 3 25 8 56 10 70 7 48 24 176 30 225 3 28 8 64 10 80 6 45 21
199 30 310 25 314 36 511 51 935 4 113 8 226 8 253 0 26 4 47 8 47 5 0 8 -8 9
-17 0 -10 2 -25 3 -33 6 -30 15 -117 22 -210 3 -52 8 -111 9 -130 14 -141 25
-1284 13 -1335 -3 -16 -9 -55 -12 -85 -3 -30 -12 -107 -21 -170 -9 -63 -18
-131 -21 -150 -3 -19 -11 -71 -19 -115 -8 -44 -17 -96 -20 -115 -3 -19 -10
-55 -15 -80 -5 -25 -12 -56 -14 -70 -24 -148 -113 -470 -177 -645 -96 -262
-299 -619 -476 -836 -104 -127 -447 -464 -623 -611 -238 -199 -579 -413 -935
-587 -193 -94 -438 -201 -461 -201 -57 0 -600 257 -822 389 -57 33 -105 61
-107 61 -17 0 -366 246 -465 329 -178 148 -528 491 -628 614 -90 112 -262 362
-262 382 0 5 -6 16 -14 24 -22 25 -121 227 -170 348 -88 217 -182 552 -231
823 -18 99 -26 148 -31 180 -2 19 -6 44 -8 55 -13 70 -18 106 -36 245 -5 47
-12 96 -15 110 -3 14 -6 42 -7 63 -1 21 -4 39 -7 41 -12 8 0 1124 14 1341 15
221 22 288 35 345 6 26 8 11 10 -65 1 -55 3 -125 5 -155 1 -30 5 -129 9 -220
4 -91 9 -199 12 -240 2 -41 7 -111 9 -155 6 -107 14 -229 20 -290 2 -27 7 -86
10 -130 3 -44 8 -96 10 -115 3 -19 7 -62 10 -95 6 -66 9 -89 25 -215 12 -88
14 -108 24 -175 4 -22 9 -58 11 -80 19 -154 121 -608 135 -600 5 3 11 29 15
58 5 43 21 134 61 345 6 33 90 322 104 357 6 17 11 30 10 30 -2 0 60 149 88
210 178 394 475 808 857 1190 109 109 142 141 255 240 146 129 367 270 505
324 164 65 424 134 535 143 39 3 190 -21 290 -46z"/>
<path d="M3457 5988 c-21 -68 -39 -130 -42 -138 -5 -24 -60 -169 -90 -240 -61
-146 -148 -306 -200 -369 -236 -288 -491 -476 -880 -651 -38 -18 -83 -38 -100
-46 -16 -7 -109 -45 -205 -84 -96 -38 -173 -70 -170 -71 10 -1 36 -8 135 -34
55 -14 118 -28 140 -30 88 -10 239 -5 320 10 122 23 186 41 385 113 74 27 87
29 100 17 42 -42 -74 -325 -193 -470 -113 -139 -353 -300 -587 -395 -30 -12
-64 -26 -75 -31 -62 -27 -298 -97 -385 -115 -14 -3 -41 -9 -60 -14 -42 -11
-59 -14 -223 -42 -71 -12 -123 -25 -115 -29 56 -31 377 -111 498 -124 30 -3
75 -8 100 -11 69 -7 415 -7 505 1 96 8 239 31 314 50 36 9 60 11 72 4 17 -8
17 -13 3 -60 -29 -97 -142 -368 -185 -441 -23 -40 -67 -107 -98 -148 -59 -80
-263 -289 -346 -355 -27 -22 -52 -42 -55 -46 -3 -3 -39 -32 -80 -65 -86 -68
-110 -91 -110 -102 0 -10 167 -174 280 -274 127 -114 249 -206 410 -313 197
-130 335 -207 635 -354 354 -174 333 -166 375 -151 66 24 530 251 630 308 164
94 412 251 468 297 9 8 44 34 78 59 139 103 467 410 462 431 -2 7 -75 73 -163
146 -344 288 -486 460 -603 734 -68 161 -112 281 -112 310 0 34 19 36 112 14
79 -19 167 -33 289 -44 58 -6 431 -7 489 -1 163 16 177 18 330 51 38 8 113 29
205 57 l100 31 -100 18 c-55 10 -118 21 -140 24 -22 4 -60 11 -85 17 -43 9
-55 12 -107 22 -195 39 -597 197 -729 285 -25 17 -48 31 -51 31 -3 0 -42 29
-87 64 -72 57 -169 152 -219 217 -51 66 -157 325 -157 383 0 48 25 47 181 -10
80 -29 157 -55 170 -58 13 -3 56 -12 94 -20 209 -44 365 -36 595 30 l54 16
-88 34 c-48 19 -102 40 -120 48 -17 8 -89 39 -161 69 -318 135 -580 289 -740
436 -84 78 -204 203 -245 257 -120 155 -265 486 -355 812 -10 34 -21 62 -24
62 -4 0 -24 -55 -44 -122z"/>
</g>
</svg>
